<svg xmlns="http://www.w3.org/2000/svg" width="1400" height="360" viewBox="0 0 1400 360" role="img" aria-labelledby="title desc">
  <title id="title">The AI real-estate lifecycle</title>
  <desc id="desc">LandScout, LandWeaver, NestCanvas, Shanghai Rental Agent, and Meadow Agent.</desc>
  <defs>
    <linearGradient id="panel" x1="0" y1="0" x2="1" y2="1"><stop stop-color="#f8fbff"/><stop offset="1" stop-color="#eef3ff"/></linearGradient>
    <linearGradient id="line" x1="0" y1="0" x2="1" y2="0"><stop stop-color="#19b899"/><stop offset=".3" stop-color="#3b82f6"/><stop offset=".58" stop-color="#a855f7"/><stop offset=".78" stop-color="#f97316"/><stop offset="1" stop-color="#14b8a6"/></linearGradient>
    <filter id="shadow" x="-30%" y="-30%" width="160%" height="180%"><feDropShadow dx="0" dy="10" stdDeviation="12" flood-color="#334155" flood-opacity=".12"/></filter>
  </defs>
  <rect x="1" y="1" width="1398" height="358" rx="28" fill="url(#panel)" stroke="#d8e1f0"/>
  <text x="62" y="66" fill="#0f172a" font-family="Inter,Segoe UI,Arial,sans-serif" font-size="26" font-weight="800">A connected view of the property lifecycle</text>
  <text x="62" y="98" fill="#64748b" font-family="Inter,Segoe UI,Arial,sans-serif" font-size="16">Different users and decisions, connected by one industry context.</text>
  <rect x="95" y="173" width="1210" height="8" rx="4" fill="url(#line)" opacity=".75"/>
  <g font-family="Inter,Segoe UI,Arial,sans-serif" filter="url(#shadow)">
    <g transform="translate(55 128)"><rect width="235" height="160" rx="22" fill="#fff" stroke="#b9eadf"/><circle cx="42" cy="47" r="23" fill="#dff9f2"/><path d="M31 53c18-3 24-13 31-27-2 20-9 35-28 42" fill="none" stroke="#089981" stroke-width="4" stroke-linecap="round"/><text x="78" y="42" fill="#0f766e" font-size="12" font-weight="800" letter-spacing="1.5">01 · DISCOVER</text><text x="78" y="65" fill="#0f172a" font-size="18" font-weight="800">LandScout</text><text x="25" y="105" fill="#64748b" font-size="14">Signals, regions, land strategy</text><text x="25" y="130" fill="#94a3b8" font-size="12">Developers · Investment teams</text></g>
    <g transform="translate(320 128)"><rect width="235" height="160" rx="22" fill="#fff" stroke="#c8dcff"/><circle cx="42" cy="47" r="23" fill="#e8f0ff"/><path d="M29 59V36l13-8 13 8v23M36 59V43h12v16" fill="none" stroke="#2563eb" stroke-width="3" stroke-linejoin="round"/><text x="78" y="42" fill="#2563eb" font-size="12" font-weight="800" letter-spacing="1.5">02 · PLAN</text><text x="78" y="65" fill="#0f172a" font-size="18" font-weight="800">LandWeaver</text><text x="25" y="105" fill="#64748b" font-size="14">Site options, metrics, feasibility</text><text x="25" y="130" fill="#94a3b8" font-size="12">Acquisition · Design management</text></g>
    <g transform="translate(585 128)"><rect width="235" height="160" rx="22" fill="#fff" stroke="#e0c9fa"/><circle cx="42" cy="47" r="23" fill="#f4eaff"/><path d="M29 33h26v27H29zM29 46h26M42 33v27" fill="none" stroke="#9333ea" stroke-width="3"/><text x="78" y="42" fill="#9333ea" font-size="12" font-weight="800" letter-spacing="1.5">03 · DESIGN</text><text x="78" y="65" fill="#0f172a" font-size="18" font-weight="800">NestCanvas</text><text x="25" y="105" fill="#64748b" font-size="14">Floor plans, layouts, home ideas</text><text x="25" y="130" fill="#94a3b8" font-size="12">Households · Renovation users</text></g>
    <g transform="translate(850 128)"><rect width="235" height="160" rx="22" fill="#fff" stroke="#fed7b6"/><circle cx="42" cy="47" r="23" fill="#fff1e5"/><path d="M31 58V39l11-9 11 9v19M35 58h14M47 45h4" fill="none" stroke="#ea580c" stroke-width="3" stroke-linejoin="round"/><text x="78" y="42" fill="#ea580c" font-size="12" font-weight="800" letter-spacing="1.5">04 · RENT</text><text x="78" y="65" fill="#0f172a" font-size="18" font-weight="800">Rental Agent</text><text x="25" y="105" fill="#64748b" font-size="14">Matching, commute, operations</text><text x="25" y="130" fill="#94a3b8" font-size="12">Renters · Brokers · Operators</text></g>
    <g transform="translate(1115 128)"><rect width="235" height="160" rx="22" fill="#fff" stroke="#bdebe5"/><circle cx="42" cy="47" r="23" fill="#e4faf7"/><path d="M42 60c-8-6-14-11-14-19 0-6 8-10 14-3 6-7 14-3 14 3 0 8-6 13-14 19z" fill="none" stroke="#0d9488" stroke-width="3"/><text x="78" y="42" fill="#0d9488" font-size="12" font-weight="800" letter-spacing="1.5">05 · LIVE WELL</text><text x="78" y="65" fill="#0f172a" font-size="18" font-weight="800">Meadow</text><text x="25" y="105" fill="#64748b" font-size="14">Companionship, care, services</text><text x="25" y="130" fill="#94a3b8" font-size="12">Older adults · Silver communities</text></g>
  </g>
</svg>
