<svg xmlns="http://www.w3.org/2000/svg" width="1200" height="290" viewBox="0 0 1200 290" role="img" aria-label="Meadow Agent — AI-assisted living for silver communities">
  <defs><linearGradient id="g" x1="0" y1="0" x2="1" y2="1"><stop stop-color="#064e4b"/><stop offset=".52" stop-color="#0f766e"/><stop offset="1" stop-color="#115e59"/></linearGradient><pattern id="p" width="38" height="38" patternUnits="userSpaceOnUse"><path d="M38 0H0V38" fill="none" stroke="#fff" stroke-opacity=".05"/></pattern></defs>
  <rect width="1200" height="290" rx="24" fill="url(#g)"/><rect width="1200" height="290" rx="24" fill="url(#p)"/>
  <circle cx="1000" cy="145" r="104" fill="#2dd4bf" fill-opacity=".12"/><circle cx="1000" cy="145" r="72" fill="none" stroke="#99f6e4" stroke-opacity=".28" stroke-dasharray="5 9"/>
  <g transform="translate(922 69)" fill="none" stroke="#ccfbf1" stroke-width="4" stroke-linecap="round" stroke-linejoin="round"><path d="M78 157c-37-27-64-50-64-88 0-31 42-48 64-14 22-34 64-17 64 14 0 38-27 61-64 88z" fill="#5eead4" fill-opacity=".13"/><path d="M53 84c8-16 22-24 42-25M72 106h12M97 106h12"/></g>
  <rect x="55" y="47" width="152" height="32" rx="16" fill="#fff" fill-opacity=".11"/><text x="74" y="69" fill="#ccfbf1" font-family="Inter,Segoe UI,Arial,sans-serif" font-size="13" font-weight="800" letter-spacing="1.4">LIVE WELL</text>
  <text x="55" y="148" fill="#fff" font-family="Inter,Segoe UI,Arial,sans-serif" font-size="50" font-weight="800">Meadow Agent</text><text x="55" y="193" fill="#d6fffa" font-family="Inter,Segoe UI,Arial,sans-serif" font-size="22">AI-assisted daily living for silver communities</text><text x="55" y="238" fill="#8ee9de" font-family="Inter,Segoe UI,Arial,sans-serif" font-size="15" letter-spacing=".7">VOICE COMPANIONSHIP · EMOTION AWARENESS · COMMUNITY SERVICES</text>
</svg>
