<svg xmlns="http://www.w3.org/2000/svg" width="800" height="260" viewBox="0 0 800 260" role="img" aria-label="Shanghai Rental Agent — rental discovery and operations">
  <defs><linearGradient id="g" x1="0" y1="0" x2="1" y2="1"><stop stop-color="#7c2d12"/><stop offset="1" stop-color="#ea580c"/></linearGradient><pattern id="p" width="34" height="34" patternUnits="userSpaceOnUse"><path d="M34 0H0V34" fill="none" stroke="#fff" stroke-opacity=".05"/></pattern></defs>
  <rect width="800" height="260" rx="24" fill="url(#g)"/><rect width="800" height="260" rx="24" fill="url(#p)"/>
  <g transform="translate(590 42)" fill="none" stroke="#ffedd5" stroke-width="3"><path d="M12 82 87 19l75 63v91H12z" fill="#fdba74" fill-opacity=".12"/><path d="M49 173v-58h76v58M76 145h22M176 41c-28 0-51 23-51 51 0 39 51 82 51 82s51-43 51-82c0-28-23-51-51-51z" fill="#fb923c" fill-opacity=".16"/><circle cx="176" cy="91" r="16"/></g>
  <rect x="48" y="42" width="102" height="30" rx="15" fill="#fff" fill-opacity=".11"/><text x="66" y="63" fill="#ffedd5" font-family="Inter,Segoe UI,Arial,sans-serif" font-size="13" font-weight="800" letter-spacing="1.4">RENT</text>
  <text x="48" y="126" fill="#fff" font-family="Inter,Segoe UI,Arial,sans-serif" font-size="40" font-weight="800">Shanghai Rental Agent</text><text x="48" y="169" fill="#ffdfc6" font-family="Inter,Segoe UI,Arial,sans-serif" font-size="19">Rental discovery &amp; operational support</text><text x="48" y="207" fill="#fdba74" font-family="Inter,Segoe UI,Arial,sans-serif" font-size="14" letter-spacing=".5">MATCHING · COMMUTE · LOCATION · SERVICE</text>
</svg>
